<svg width="940" height="675" viewBox="0 0 940 675" fill="none" xmlns="http://www.w3.org/2000/svg">
<g clip-path="url(#clip0)">
<path d="M603.104 524.555C608.8 526.177 613.718 527.567 619.199 529.122C619.878 532.779 620.573 536.535 621.352 540.688C629.714 541.913 637.844 543.104 646.868 544.428C645.229 565.012 628.207 587.334 655.793 602.69C647.663 614.273 640.327 625.74 631.916 636.346C625.143 644.884 616.98 652.066 620.159 664.89C620.871 667.736 617.344 671.624 615.771 675.016C612.344 672.998 608.9 670.996 604.727 668.547C586.264 675.48 585.437 675.083 571.677 657.609C570.021 655.491 566.146 654.151 563.281 654.134C555.896 654.101 548.495 654.995 537.914 655.756C547.799 640.318 534.735 620.329 554.373 610.765C553.396 608.365 553.115 606.926 552.767 606.909C539.322 606.148 530.711 597.527 521.588 589.005C518.193 585.828 510.825 583.048 507.298 584.62C496.038 589.667 490.557 582.337 483.686 576.579C467.972 563.424 451.745 550.881 436.411 537.296C431.841 533.242 429.606 526.574 425.765 520.22C415.449 524.522 410.73 517.754 404.437 509.315C393.757 495.019 380.461 482.691 368.34 469.454C356.219 456.233 343.999 443.078 332.276 429.509C330.074 426.945 327.988 421.252 329.296 419.217C335.919 408.941 330.571 401.76 325.835 392.874C321 383.823 319.626 372.968 316.248 363.073C313.035 353.642 310.353 343.713 305.253 335.324C301.014 328.341 293.712 323.195 287.502 335.01C286.592 336.747 284.423 337.823 281.31 340.536C271.755 327.53 258.89 322.765 243.341 325.479C241.652 325.776 239.268 324.569 237.811 323.344C231.055 317.619 224.531 311.645 217.411 305.308C222.528 298.259 228.422 290.101 234.88 281.199C230.757 275.821 226.253 269.964 221.782 264.122C231.85 251.812 229.631 244.415 214.596 240.096C212.493 239.484 210.341 239.021 208.188 238.64C192.954 235.877 192.954 235.877 192.209 225.783C181.744 215.292 173.896 207.4 165.103 198.58C158.91 197.72 150.25 196.512 138.03 194.791C141.971 205.546 145.266 214.531 149.654 226.561C144.736 223.069 142.451 221.878 140.713 220.141C128.741 208.111 128.99 208.277 117.862 220.538C115.875 222.739 111.007 223.698 107.795 223.185C91.0378 220.488 77.9402 229.225 64.9088 236.969C56.9773 241.668 56.5137 268.292 63.998 276.682C40.3196 283.499 23.2811 263.461 0.0332031 264.586C7.61692 235.231 14.3396 207.317 22.0723 179.7C37.0742 126.121 53.0199 72.8066 67.7402 19.1448C70.3233 9.72957 75.5889 7.46263 83.3713 6.96622C113.574 5.01368 144.041 5.04678 173.912 0.84385C199.313 -2.73029 215.06 5.14606 230.79 25.4326C261.373 64.8806 295.798 101.334 327.938 139.607C336.896 150.263 343.105 163.186 351.269 174.57C353.156 177.201 358.455 179.816 361.22 179.038C386.985 171.757 411.64 176.473 436.163 184.581C458.997 192.127 481.914 197.339 502.728 186.517C512.547 196.694 521.72 205.232 529.602 214.829C532.533 218.403 532.052 224.608 533.924 229.291C536.341 235.331 539.586 241.039 542.749 247.476C547.899 246.004 552.287 244.746 559.423 242.711C557.006 263.345 555.681 282.39 552.254 301.039C550.018 313.25 554.886 317.652 565.467 317.387C573.862 317.172 576.18 321.309 576.528 328.325C577.174 341.463 577.091 354.701 578.896 367.69C579.475 371.893 584.36 377.734 588.351 378.809C598.385 381.54 609.115 383.409 619.447 382.979C634.284 382.367 647.828 382.847 657.349 397.756C655.362 400.37 652.845 403.663 649.037 408.66C656.141 415.08 663.161 422.013 670.878 428.037C673.444 430.039 677.815 429.741 681.359 430.502C681.409 426.812 681.856 423.073 681.375 419.465C680.928 416.139 679.471 412.946 679.405 412.698C690.168 401.049 699.192 390.789 708.779 381.093C714.393 375.417 720.271 369.477 727.159 365.704C736.25 360.707 747.178 358.92 755.938 353.542C766.734 346.923 783.325 346.89 784.766 328.424C800.811 333.851 807.831 326.538 809.736 310.719C817.998 314.094 825.002 316.94 835.467 321.209C818.197 333.14 802.996 343.713 787.73 354.188C774.731 363.123 774.665 364.116 787.73 375.252C791.522 373.183 795.545 370.983 801.059 367.971C803.857 391.567 820.167 398.252 840.269 401.479C840.633 396.068 840.965 391.104 841.379 385.197C845.899 386.388 849.393 387.298 854.129 388.539C854.129 381.209 854.129 374.524 854.129 366.482C872.144 370.42 865.57 387.116 872.409 396.581C876.433 395.621 880.473 394.661 887.08 393.089C884.381 400.668 882.344 406.36 879.645 413.922C884.016 412.334 887.245 411.672 889.911 410.067C897.677 405.367 903.257 404.192 908.986 414.121C911.47 418.439 919.931 419.912 925.992 421.385C929.916 422.344 934.403 420.988 940 420.574C936.274 439.62 913.54 433.547 907.91 448.456C903.837 446.371 900.161 444.501 895.293 442.002C895.061 447.099 894.879 450.805 894.647 455.918C889.977 454.578 885.606 453.32 882.377 452.394C872.674 461.048 863.451 469.255 854.095 477.595C853.549 477.413 852.373 477.396 852.092 476.883C843.349 460.717 843.333 460.485 818.926 464.936C812.584 466.095 806.573 469.04 800.513 471.125C796.688 466.21 792.846 460.551 788.26 455.571C781.636 448.389 779.219 442.714 790.826 438.13C795.943 436.112 800.446 432.554 806.109 429.162C802.549 423.801 800.314 418.787 796.655 415.312C791.174 410.116 787.548 399.625 776.967 413.277C770.161 422.047 755.193 424.512 742.972 430.237C742.327 429.278 741.168 427.06 739.545 425.224C736.333 421.583 732.888 418.175 729.527 414.667C726.613 418.803 721.977 422.609 721.149 427.127C719.178 437.75 719.029 448.72 718.301 457.755C710.601 459.906 703.547 461.875 694.241 464.49C692.635 463.695 687.966 461.428 683.925 459.459C686.161 469.189 688.115 477.677 690.069 486.183C686.078 486.53 682.071 486.894 677.418 487.308C677.054 488.301 676.127 489.873 675.911 491.527C673.676 509.53 668.592 512.459 651.753 505.261C650.544 504.748 649.352 504.169 648.176 503.59C620.441 489.906 613.47 492.901 603.104 524.555Z" fill="#05779F"/>
<path d="M892.908 428.384L860.173 416.636V451.864L906.354 428.384L743.188 380.067L698.133 435.003L642.728 463.613L540.15 469.007L478.172 522.702L576.396 628.404L635.294 455.571L540.15 479.068L448.218 323.857L375.56 416.636L692.254 435.003L273.312 299.798L202.509 190.456L448.218 337.508L588.997 631.846L747.675 390.972L850.933 446.354" stroke="#E5E5E5" stroke-width="0.75" stroke-miterlimit="10"/>
<path d="M202.509 208.641C209.002 208.641 214.265 203.381 214.265 196.892C214.265 190.404 209.002 185.144 202.509 185.144C196.016 185.144 190.752 190.404 190.752 196.892C190.752 203.381 196.016 208.641 202.509 208.641Z" fill="#E5E5E5"/>
<path d="M266.308 311.546C272.801 311.546 278.064 306.286 278.064 299.798C278.064 293.309 272.801 288.049 266.308 288.049C259.815 288.049 254.551 293.309 254.551 299.798C254.551 306.286 259.815 311.546 266.308 311.546Z" fill="#E5E5E5"/>
<path d="M375.56 435.003C382.052 435.003 387.316 429.743 387.316 423.255C387.316 416.766 382.052 411.506 375.56 411.506C369.067 411.506 363.803 416.766 363.803 423.255C363.803 429.743 369.067 435.003 375.56 435.003Z" fill="#E5E5E5"/>
<path d="M481.748 540.44C488.241 540.44 493.505 535.18 493.505 528.692C493.505 522.203 488.241 516.943 481.748 516.943C475.255 516.943 469.992 522.203 469.992 528.692C469.992 535.18 475.255 540.44 481.748 540.44Z" fill="#E5E5E5"/>
<path d="M582.406 643.594C588.899 643.594 594.163 638.334 594.163 631.846C594.163 625.357 588.899 620.097 582.406 620.097C575.913 620.097 570.65 625.357 570.65 631.846C570.65 638.334 575.913 643.594 582.406 643.594Z" fill="#E5E5E5"/>
<path d="M540.149 487.109C546.642 487.109 551.906 481.85 551.906 475.361C551.906 468.873 546.642 463.613 540.149 463.613C533.657 463.613 528.393 468.873 528.393 475.361C528.393 481.85 533.657 487.109 540.149 487.109Z" fill="#E5E5E5"/>
<path d="M635.294 475.361C641.787 475.361 647.05 470.101 647.05 463.613C647.05 457.124 641.787 451.864 635.294 451.864C628.801 451.864 623.537 457.124 623.537 463.613C623.537 470.101 628.801 475.361 635.294 475.361Z" fill="#E5E5E5"/>
<path d="M692.254 451.864C698.747 451.864 704.011 446.604 704.011 440.116C704.011 433.628 698.747 428.368 692.254 428.368C685.762 428.368 680.498 433.628 680.498 440.116C680.498 446.604 685.762 451.864 692.254 451.864Z" fill="#E5E5E5"/>
<path d="M743.188 399.295C749.681 399.295 754.944 394.035 754.944 387.546C754.944 381.058 749.681 375.798 743.188 375.798C736.695 375.798 731.431 381.058 731.431 387.546C731.431 394.035 736.695 399.295 743.188 399.295Z" fill="#E5E5E5"/>
<path d="M854.576 423.254C861.069 423.254 866.332 417.995 866.332 411.506C866.332 405.018 861.069 399.758 854.576 399.758C848.083 399.758 842.819 405.018 842.819 411.506C842.819 417.995 848.083 423.254 854.576 423.254Z" fill="#E5E5E5"/>
<path d="M899.349 440.132C905.842 440.132 911.106 434.873 911.106 428.384C911.106 421.896 905.842 416.636 899.349 416.636C892.857 416.636 887.593 421.896 887.593 428.384C887.593 434.873 892.857 440.132 899.349 440.132Z" fill="#E5E5E5"/>
<path d="M854.576 463.612C861.069 463.612 866.332 458.352 866.332 451.864C866.332 445.376 861.069 440.116 854.576 440.116C848.083 440.116 842.819 445.376 842.819 451.864C842.819 458.352 848.083 463.612 854.576 463.612Z" fill="#E5E5E5"/>
<path d="M448.218 342.919C454.71 342.919 459.974 337.659 459.974 331.171C459.974 324.682 454.71 319.422 448.218 319.422C441.725 319.422 436.461 324.682 436.461 331.171C436.461 337.659 441.725 342.919 448.218 342.919Z" fill="#E5E5E5"/>
</g>
<defs>
<clipPath id="clip0">
<rect width="940" height="675" fill="white"/>
</clipPath>
</defs>
</svg>
