<svg width="35" height="29" viewBox="0 0 35 29" fill="none" xmlns="http://www.w3.org/2000/svg">
<path d="M32.0836 0.115693L0.727623 12.3319C-0.287368 12.7306 -0.226952 14.1806 0.824289 14.4948L8.78713 16.851L11.7596 26.2881C12.0738 27.2789 13.3183 27.5689 14.0433 26.8318L18.1637 22.6268L26.2474 28.5597C27.2382 29.2847 28.6399 28.741 28.8936 27.5447L34.2465 1.95235C34.5002 0.683607 33.2677 -0.355555 32.0836 0.115693ZM28.1445 5.79483L13.5842 18.6635C13.4392 18.7964 13.3425 18.9656 13.3183 19.1589L12.7625 24.1372C12.7383 24.2943 12.5209 24.3185 12.4725 24.1614L10.1646 16.7302C10.0559 16.3919 10.2009 16.0173 10.503 15.836L27.6974 5.1665C28.0961 4.93692 28.4949 5.48067 28.1445 5.79483Z" fill="white"/>
</svg>
